<?xml version="1.0" encoding="UTF-8"?>
<!DOCTYPE svg PUBLIC "-//W3C//DTD SVG 1.1//EN" "http://www.w3.org/Graphics/SVG/1.1/DTD/svg11.dtd">
<svg xmlns="http://www.w3.org/2000/svg" version="1.1" width="216px" height="50px" style="shape-rendering:geometricPrecision; text-rendering:geometricPrecision; image-rendering:optimizeQuality; fill-rule:evenodd; clip-rule:evenodd" xmlns:xlink="http://www.w3.org/1999/xlink">
<g><path style="opacity:1" fill="#a45fdc" d="M 3.5,-0.5 C 5.16667,-0.5 6.83333,-0.5 8.5,-0.5C 11.9916,2.59646 12.3249,5.92979 9.5,9.5C 7.16667,9.5 4.83333,9.5 2.5,9.5C 1.27187,8.69354 0.271873,7.69354 -0.5,6.5C -0.5,5.5 -0.5,4.5 -0.5,3.5C 0.5,1.83333 1.83333,0.5 3.5,-0.5 Z"/></g>
<g><path style="opacity:0.265" fill="#fefffe" d="M 59.5,6.5 C 63.5332,6.69139 65.0332,8.69139 64,12.5C 61.9592,13.4231 59.7925,13.7564 57.5,13.5C 57.1849,10.7892 57.8516,8.45591 59.5,6.5 Z"/></g>
<g><path style="opacity:0.239" fill="#fefffe" d="M 129.5,6.5 C 131.144,6.28649 132.644,6.61983 134,7.5C 134.832,17.1839 134.665,26.8505 133.5,36.5C 130.843,38.1142 129.01,37.4475 128,34.5C 127.333,26.1667 127.333,17.8333 128,9.5C 128.513,8.47344 129.013,7.47344 129.5,6.5 Z"/></g>
<g><path style="opacity:0.374" fill="#fefffe" d="M 139.5,6.5 C 141.722,6.17798 143.556,6.84464 145,8.5C 145.667,17.5 145.667,26.5 145,35.5C 143.329,37.2763 141.496,37.6096 139.5,36.5C 138.194,26.4396 138.194,16.4396 139.5,6.5 Z"/></g>
<g><path style="opacity:1" fill="#000000" d="M 59.5,8.5 C 62.8606,9.20318 63.1939,10.5365 60.5,12.5C 58.3576,11.5629 58.0243,10.2296 59.5,8.5 Z"/></g>
<g><path style="opacity:1" fill="#000000" d="M 129.5,8.5 C 130.822,8.33003 131.989,8.66337 133,9.5C 133.667,17.5 133.667,25.5 133,33.5C 132.395,35.4812 131.395,35.8146 130,34.5C 129.5,25.8397 129.334,17.1731 129.5,8.5 Z"/></g>
<g><path style="opacity:1" fill="#000000" d="M 140.5,8.5 C 141.5,8.5 142.5,8.5 143.5,8.5C 143.666,17.1731 143.5,25.8397 143,34.5C 142.586,34.9574 142.086,35.2907 141.5,35.5C 140.502,26.5246 140.168,17.5246 140.5,8.5 Z"/></g>
<g><path style="opacity:0.878" fill="#9281bd" d="M 2.5,9.5 C 4.83333,9.5 7.16667,9.5 9.5,9.5C 8.5,10.1667 7.5,10.8333 6.5,11.5C 5.83333,11.5 5.16667,11.5 4.5,11.5C 3.83333,10.8333 3.16667,10.1667 2.5,9.5 Z"/></g>
<g><path style="opacity:0.38" fill="#fefffe" d="M 93.5,9.5 C 96.9103,9.38377 98.2436,11.0504 97.5,14.5C 101.937,14.3054 103.604,16.1388 102.5,20C 100.975,21.0086 99.3084,21.5086 97.5,21.5C 97.5,24.5 97.5,27.5 97.5,30.5C 105.227,31.9924 105.393,34.3257 98,37.5C 96.2367,37.0245 94.57,36.3578 93,35.5C 91.6115,30.6278 91.1115,25.6278 91.5,20.5C 89.3652,20.853 88.0319,20.0197 87.5,18C 89.946,15.4984 91.946,12.665 93.5,9.5 Z"/></g>
<g><path style="opacity:1" fill="#000000" d="M 93.5,11.5 C 96.0838,12.0483 97.0838,13.715 96.5,16.5C 98.288,16.2148 99.9547,16.5481 101.5,17.5C 100.332,19.2174 98.6648,19.8841 96.5,19.5C 96.3345,23.5138 96.5012,27.5138 97,31.5C 102.584,32.6567 102.75,33.9901 97.5,35.5C 95.9707,35.4712 94.804,34.8045 94,33.5C 93.6667,29.1667 93.3333,24.8333 93,20.5C 91.9887,19.6634 90.8221,19.33 89.5,19.5C 89.5,18.5 89.5,17.5 89.5,16.5C 92.9103,16.6162 94.2436,14.9496 93.5,11.5 Z"/></g>
<g><path style="opacity:0.257" fill="#fefffe" d="M 58.5,14.5 C 60.7224,14.178 62.5557,14.8446 64,16.5C 64.6667,22.8333 64.6667,29.1667 64,35.5C 62.3292,37.2763 60.4959,37.6096 58.5,36.5C 57.2038,29.1095 57.2038,21.7762 58.5,14.5 Z"/></g>
<g><path style="opacity:0.371" fill="#fefffe" d="M 67.5,14.5 C 72.7497,14.8721 78.0831,15.0388 83.5,15C 84,15.5 84.5,16 85,16.5C 86.5815,22.7226 86.9148,29.0559 86,35.5C 84.806,37.5254 83.306,37.8587 81.5,36.5C 80.6717,31.8685 80.1717,27.2018 80,22.5C 78.084,19.967 76.084,19.967 74,22.5C 73.6667,26.8333 73.3333,31.1667 73,35.5C 71,38.1667 69,38.1667 67,35.5C 66.2055,28.4197 66.3722,21.4197 67.5,14.5 Z"/></g>
<g><path style="opacity:0.315" fill="#fefffe" d="M 110.5,14.5 C 119.384,12.7667 124.717,16.2667 126.5,25C 125.833,26 125.167,27 124.5,28C 120.167,28.3333 115.833,28.6667 111.5,29C 112.6,30.023 113.933,30.523 115.5,30.5C 118.154,29.7325 120.821,29.5658 123.5,30C 124.833,31.6667 124.833,33.3333 123.5,35C 114.46,39.9124 107.96,37.7457 104,28.5C 102.815,22.2019 104.982,17.5352 110.5,14.5 Z M 112.5,20.5 C 114.75,20.1814 116.75,20.6814 118.5,22C 116.167,22.6667 113.833,22.6667 111.5,22C 112.056,21.6174 112.389,21.1174 112.5,20.5 Z"/></g>
<g><path style="opacity:0.354" fill="#fefffe" d="M 149.5,14.5 C 151.722,14.178 153.556,14.8446 155,16.5C 155.499,21.1548 155.666,25.8215 155.5,30.5C 157.467,30.7394 159.301,30.4061 161,29.5C 161.333,24.8333 161.667,20.1667 162,15.5C 163.667,14.1667 165.333,14.1667 167,15.5C 167.667,23.1667 167.667,30.8333 167,38.5C 165.104,42.7853 161.771,44.7853 157,44.5C 149.954,44.9902 148.121,42.3235 151.5,36.5C 150.469,35.2997 149.635,33.9663 149,32.5C 148.212,26.418 148.379,20.418 149.5,14.5 Z"/></g>
<g><path style="opacity:0.371" fill="#fefffe" d="M 174.5,28.5 C 167.284,17.8354 170.284,13.3354 183.5,15C 186.145,16.2865 187.145,18.4532 186.5,21.5C 183.159,20.9947 179.826,20.8281 176.5,21C 179.649,22.4964 182.816,23.9964 186,25.5C 188.845,32.8074 186.345,36.8074 178.5,37.5C 172.775,37.6042 169.942,34.9376 170,29.5C 171.356,28.6198 172.856,28.2865 174.5,28.5 Z M 174.5,28.5 C 176.827,28.2471 178.827,28.9137 180.5,30.5C 177.789,31.9886 175.789,31.3219 174.5,28.5 Z"/></g>
<g><path style="opacity:0.374" fill="#fefffe" d="M 194.5,14.5 C 205.402,12.9046 210.069,17.4046 208.5,28C 204.167,28.3333 199.833,28.6667 195.5,29C 196.6,30.023 197.933,30.523 199.5,30.5C 202.154,29.7325 204.821,29.5658 207.5,30C 208.841,33.6402 207.507,35.9735 203.5,37C 192.172,38.0038 187.339,32.8371 189,21.5C 189.967,18.3794 191.8,16.046 194.5,14.5 Z M 196.5,20.5 C 198.75,20.1814 200.75,20.6814 202.5,22C 200.167,22.6667 197.833,22.6667 195.5,22C 196.056,21.6174 196.389,21.1174 196.5,20.5 Z"/></g>
<g><path style="opacity:1" fill="#000000" d="M 76.5,15.5 C 79.505,15.253 82.005,16.253 84,18.5C 84.8236,21.7848 85.3236,25.1182 85.5,28.5C 85.6793,31.1312 85.0127,33.4645 83.5,35.5C 82.914,35.2907 82.414,34.9574 82,34.5C 81.6667,29.8333 81.3333,25.1667 81,20.5C 77.7291,17.8028 74.7291,18.1361 72,21.5C 71.6667,25.8333 71.3333,30.1667 71,34.5C 70.586,34.9574 70.086,35.2907 69.5,35.5C 68.5037,29.2015 68.1703,22.8682 68.5,16.5C 70.143,16.4802 71.4763,17.1468 72.5,18.5C 73.9014,17.4793 75.2347,16.4793 76.5,15.5 Z"/></g>
<g><path style="opacity:1" fill="#000000" d="M 112.5,15.5 C 119.814,15.6516 123.481,19.1516 123.5,26C 118.845,26.4992 114.179,26.6658 109.5,26.5C 109.393,28.9032 110.393,30.7365 112.5,32C 115.95,32.1751 119.283,32.3418 122.5,32.5C 120.806,34.844 118.472,35.844 115.5,35.5C 107.572,34.7294 104.405,30.3961 106,22.5C 107.018,18.9853 109.185,16.652 112.5,15.5 Z M 112.5,20.5 C 112.389,21.1174 112.056,21.6174 111.5,22C 113.833,22.6667 116.167,22.6667 118.5,22C 116.75,20.6814 114.75,20.1814 112.5,20.5 Z"/></g>
<g><path style="opacity:1" fill="#000000" d="M 176.5,15.5 C 180.027,15.3964 183.027,16.5631 185.5,19C 184.975,19.6924 184.308,20.1924 183.5,20.5C 180.266,17.7281 177.266,17.8948 174.5,21C 177.834,23.3451 181.334,25.5117 185,27.5C 185.315,34.8191 181.815,37.3191 174.5,35C 171.766,34.2817 171.1,32.7817 172.5,30.5C 174.607,31.6368 176.773,32.6368 179,33.5C 182.173,32.6584 183.006,30.825 181.5,28C 178.756,27.1965 176.089,26.1965 173.5,25C 170.591,20.643 171.591,17.4763 176.5,15.5 Z"/></g>
<g><path style="opacity:1" fill="#000000" d="M 196.5,15.5 C 203.007,15.5072 207.007,18.6739 208.5,25C 203.691,26.4415 198.691,26.9415 193.5,26.5C 193.393,28.9032 194.393,30.7365 196.5,32C 199.95,32.1751 203.283,32.3418 206.5,32.5C 204.806,34.844 202.472,35.844 199.5,35.5C 193.458,35.2935 190.125,32.1269 189.5,26C 190.076,21.2691 192.41,17.7691 196.5,15.5 Z M 196.5,20.5 C 196.389,21.1174 196.056,21.6174 195.5,22C 197.833,22.6667 200.167,22.6667 202.5,22C 200.75,20.6814 198.75,20.1814 196.5,20.5 Z"/></g>
<g><path style="opacity:1" fill="#000000" d="M 59.5,16.5 C 60.5,16.5 61.5,16.5 62.5,16.5C 62.6662,22.5092 62.4995,28.5092 62,34.5C 60.6054,35.8146 59.6054,35.4812 59,33.5C 58.2153,27.7507 58.3819,22.084 59.5,16.5 Z"/></g>
<g><path style="opacity:1" fill="#000000" d="M 150.5,16.5 C 151.5,16.5 152.5,16.5 153.5,16.5C 153.334,21.1785 153.501,25.8452 154,30.5C 156.667,33.1667 159.333,33.1667 162,30.5C 162.333,26.1667 162.667,21.8333 163,17.5C 164,16.1667 165,16.1667 166,17.5C 166.848,24.8992 166.515,32.2325 165,39.5C 164.097,40.7014 162.931,41.5348 161.5,42C 158.183,42.4983 154.85,42.665 151.5,42.5C 151.238,41.0222 151.571,39.6888 152.5,38.5C 155.103,39.5617 157.77,39.7284 160.5,39C 162.325,37.5341 162.825,35.7008 162,33.5C 158.465,36.1217 154.965,36.1217 151.5,33.5C 149.339,27.9071 149.005,22.2404 150.5,16.5 Z"/></g>
<g><path style="opacity:0.513" fill="#fefffe" d="M 112.5,18.5 C 115.99,18.245 118.657,19.5783 120.5,22.5C 120.291,23.086 119.957,23.586 119.5,24C 116.183,24.4983 112.85,24.665 109.5,24.5C 109.028,21.6421 110.028,19.6421 112.5,18.5 Z M 112.5,20.5 C 112.389,21.1174 112.056,21.6174 111.5,22C 113.833,22.6667 116.167,22.6667 118.5,22C 116.75,20.6814 114.75,20.1814 112.5,20.5 Z"/></g>
<g><path style="opacity:0.505" fill="#fefffe" d="M 196.5,18.5 C 199.99,18.245 202.657,19.5783 204.5,22.5C 204.291,23.086 203.957,23.586 203.5,24C 200.183,24.4983 196.85,24.665 193.5,24.5C 193.461,21.911 194.461,19.911 196.5,18.5 Z M 196.5,20.5 C 196.389,21.1174 196.056,21.6174 195.5,22C 197.833,22.6667 200.167,22.6667 202.5,22C 200.75,20.6814 198.75,20.1814 196.5,20.5 Z"/></g>
<g><path style="opacity:1" fill="#07c0fc" d="M 33.5,13.5 C 35.2644,14.326 36.5977,15.6593 37.5,17.5C 36.9408,20.9433 35.6074,23.9433 33.5,26.5C 32.7339,22.0309 32.7339,17.6975 33.5,13.5 Z"/></g>
<g><path style="opacity:0.993" fill="#287eef" d="M 22.5,12.5 C 23.4124,13.7382 23.5791,15.0715 23,16.5C 19.3215,20.5512 16.1548,24.8845 13.5,29.5C 12.6143,28.675 12.281,27.675 12.5,26.5C 14.4967,23.8402 15.9967,20.8402 17,17.5C 18.7038,15.6266 20.5372,13.9599 22.5,12.5 Z"/></g>
<g><path style="opacity:1" fill="#a65fde" d="M 4.5,11.5 C 5.16667,11.5 5.83333,11.5 6.5,11.5C 8.15298,11.6596 9.48631,12.3263 10.5,13.5C 7.16911,16.9995 4.00244,20.6662 1,24.5C 0.721579,23.5842 0.221579,22.9175 -0.5,22.5C -0.5,20.1667 -0.5,17.8333 -0.5,15.5C 0.538701,13.4689 2.20537,12.1355 4.5,11.5 Z"/></g>
<g><path style="opacity:1" fill="#2690f1" d="M 33.5,13.5 C 32.7339,17.6975 32.7339,22.0309 33.5,26.5C 33.5,26.8333 33.5,27.1667 33.5,27.5C 30.7892,27.8151 28.4559,27.1484 26.5,25.5C 26.2224,22.7097 26.8891,20.2097 28.5,18C 28.1667,17.5 27.8333,17 27.5,16.5C 25.5283,17.3052 24.0283,18.6385 23,20.5C 20.3803,26.9136 16.8803,32.747 12.5,38C 11.1667,38.6667 9.83333,38.6667 8.5,38C 9.79295,35.9481 10.7929,33.7814 11.5,31.5C 11.5,26.1667 11.5,20.8333 11.5,15.5C 12.4816,18.9619 12.815,22.6286 12.5,26.5C 12.281,27.675 12.6143,28.675 13.5,29.5C 16.1548,24.8845 19.3215,20.5512 23,16.5C 23.5791,15.0715 23.4124,13.7382 22.5,12.5C 26.4675,10.8815 30.1342,11.2148 33.5,13.5 Z"/></g>
<g><path style="opacity:1" fill="#1cbceb" d="M 26.5,25.5 C 28.4559,27.1484 30.7892,27.8151 33.5,27.5C 33.5,29.5 33.5,31.5 33.5,33.5C 31.0897,34.4385 28.7564,34.4385 26.5,33.5C 26.5,31.8333 26.5,30.1667 26.5,28.5C 26.5,27.8333 26.5,27.1667 26.5,26.5C 26.5,26.1667 26.5,25.8333 26.5,25.5 Z"/></g>
<g><path style="opacity:1" fill="#4f5de2" d="M 10.5,13.5 C 11.3382,13.8417 11.6716,14.5084 11.5,15.5C 11.5,20.8333 11.5,26.1667 11.5,31.5C 4.96202,30.5965 2.62869,33.2632 4.5,39.5C 2.35665,37.8693 0.689986,35.8693 -0.5,33.5C -0.5,29.8333 -0.5,26.1667 -0.5,22.5C 0.221579,22.9175 0.721579,23.5842 1,24.5C 4.00244,20.6662 7.16911,16.9995 10.5,13.5 Z"/></g>
<g><path style="opacity:1" fill="#20dbed" d="M 37.5,17.5 C 38.2216,17.9175 38.7216,18.5842 39,19.5C 39.498,22.4816 39.6646,25.4816 39.5,28.5C 36.4903,32.8375 32.8236,36.5042 28.5,39.5C 27.2616,37.7857 26.595,35.7857 26.5,33.5C 28.7564,34.4385 31.0897,34.4385 33.5,33.5C 33.5,31.5 33.5,29.5 33.5,27.5C 33.5,27.1667 33.5,26.8333 33.5,26.5C 35.6074,23.9433 36.9408,20.9433 37.5,17.5 Z"/></g>
<g><path style="opacity:0.993" fill="#1876f1" d="M 26.5,25.5 C 26.5,25.8333 26.5,26.1667 26.5,26.5C 22.162,32.168 17.4953,37.5013 12.5,42.5C 9.35114,42.5848 6.68447,41.5848 4.5,39.5C 2.62869,33.2632 4.96202,30.5965 11.5,31.5C 10.7929,33.7814 9.79295,35.9481 8.5,38C 9.83333,38.6667 11.1667,38.6667 12.5,38C 16.8803,32.747 20.3803,26.9136 23,20.5C 24.0283,18.6385 25.5283,17.3052 27.5,16.5C 27.8333,17 28.1667,17.5 28.5,18C 26.8891,20.2097 26.2224,22.7097 26.5,25.5 Z"/></g>
<g><path style="opacity:0.835" fill="#208ef6" d="M 26.5,26.5 C 26.5,27.1667 26.5,27.8333 26.5,28.5C 24.4409,31.6106 22.6076,34.9439 21,38.5C 18.3413,40.2465 15.508,41.5798 12.5,42.5C 17.4953,37.5013 22.162,32.168 26.5,26.5 Z"/></g>
<g><path style="opacity:0.122" fill="#45ecd8" d="M 39.5,28.5 C 39.6653,32.1817 39.4986,35.8484 39,39.5C 35.298,43.3667 31.798,43.3667 28.5,39.5C 32.8236,36.5042 36.4903,32.8375 39.5,28.5 Z"/></g>
</svg>
