<?xml version="1.0" encoding="iso-8859-1"?>
<!-- Generator: Adobe Illustrator 23.1.1, SVG Export Plug-In . SVG Version: 6.00 Build 0)  -->
<svg version="1.1" id="Layer_1_1_" xmlns="http://www.w3.org/2000/svg" xmlns:xlink="http://www.w3.org/1999/xlink" x="0px" y="0px"
	 viewBox="0 0 64 64" style="enable-background:new 0 0 64 64;" xml:space="preserve">
<path d="M26,23c-8.271,0-15,6.729-15,15s6.729,15,15,15s15-6.729,15-15S34.271,23,26,23z M33.343,48.717l-0.976-1.691l-1.732,1
	l0.973,1.684c-1.415,0.68-2.966,1.113-4.606,1.239V48h-2v2.949c-1.64-0.126-3.192-0.558-4.606-1.239l0.973-1.684l-1.732-1
	l-0.976,1.691c-1.321-0.908-2.466-2.053-3.375-3.375l1.691-0.976l-1-1.732l-1.684,0.973c-0.68-1.415-1.113-2.966-1.239-4.606H16v-2
	h-2.949c0.126-1.64,0.558-3.192,1.239-4.606l1.684,0.973l1-1.732l-1.691-0.976c0.908-1.321,2.053-2.466,3.375-3.375l0.976,1.691
	l1.732-1l-0.973-1.684c1.415-0.68,2.966-1.113,4.606-1.239V28h2v-2.949c1.64,0.126,3.192,0.558,4.606,1.239l-0.973,1.684l1.732,1
	l0.976-1.691c1.321,0.908,2.466,2.053,3.375,3.375l-1.691,0.976l1,1.732l1.684-0.973c0.68,1.415,1.113,2.966,1.239,4.606H36v2h2.949
	c-0.126,1.64-0.558,3.192-1.239,4.606l-1.684-0.973l-1,1.732l1.691,0.976C35.809,46.664,34.664,47.809,33.343,48.717z"/>
<path d="M27,30h-2v8c0,0.352,0.185,0.677,0.485,0.857l5,3l1.029-1.715L27,37.434V30z"/>
<path d="M49.6,1.2c-0.303-0.229-0.709-0.264-1.047-0.095C48.214,1.275,48,1.621,48,2v4H10v2h39c0.553,0,1-0.447,1-1V4l9.389,7.041
	L50,18.865V15c0-0.553-0.447-1-1-1H26C12.767,14,2,24.767,2,38s10.767,24,24,24v-1l0.021,1l0.123-0.001v-2L25.996,60
	C13.867,59.998,4,50.13,4,38c0-12.131,9.869-22,22-22h22v5c0,0.388,0.225,0.741,0.576,0.905c0.35,0.165,0.766,0.112,1.064-0.137
	l12-10c0.234-0.196,0.367-0.488,0.359-0.794s-0.155-0.591-0.4-0.774L49.6,1.2z"/>
<path d="M36.242,59.711c0.632-0.3,1.252-0.627,1.844-0.972l-1.008-1.729c-0.543,0.317-1.112,0.617-1.693,0.894L36.242,59.711z"/>
<path d="M38.684,55.978l1.156,1.633c0.564-0.4,1.119-0.829,1.648-1.276l-1.291-1.527C39.712,55.217,39.203,55.61,38.684,55.978z"/>
<path d="M47.262,43.673l1.932,0.516c0.179-0.667,0.329-1.353,0.449-2.038l-1.971-0.344C47.562,42.435,47.425,43.062,47.262,43.673z"
	/>
<path d="M47.918,39.91l1.992,0.172C49.97,39.392,50,38.691,50,38h-2C48,38.635,47.973,39.277,47.918,39.91z"/>
<path d="M44.055,50.574l1.639,1.148c0.394-0.562,0.771-1.155,1.12-1.764l-1.734-0.996C44.76,49.519,44.415,50.061,44.055,50.574z"/>
<path d="M45.959,47.266l1.814,0.842c0.292-0.63,0.561-1.278,0.796-1.928l-1.879-0.684C46.474,46.092,46.228,46.688,45.959,47.266z"
	/>
<path d="M30.299,61.616l-0.357-1.969c-0.616,0.112-1.254,0.199-1.895,0.259l0.186,1.992C28.931,61.833,29.626,61.738,30.299,61.616z
	"/>
<path d="M33.627,58.643c-0.599,0.221-1.211,0.417-1.821,0.584l0.527,1.93c0.666-0.183,1.334-0.396,1.985-0.637L33.627,58.643z"/>
<path d="M41.603,53.509l1.418,1.412c0.485-0.488,0.958-1.007,1.406-1.542l-1.535-1.283C42.481,52.587,42.048,53.062,41.603,53.509z"
	/>
<rect x="2" y="6" width="2" height="2"/>
<rect x="6" y="6" width="2" height="2"/>
</svg>
