<?xml version="1.0" encoding="UTF-8"?>
<!DOCTYPE svg PUBLIC "-//W3C//DTD SVG 1.1//EN" "http://www.w3.org/Graphics/SVG/1.1/DTD/svg11.dtd">
<!-- Creator: CorelDRAW -->
<svg xmlns="http://www.w3.org/2000/svg" xml:space="preserve" width="1.70666in" height="1.70666in" version="1.1" style="shape-rendering:geometricPrecision; text-rendering:geometricPrecision; image-rendering:optimizeQuality; fill-rule:evenodd; clip-rule:evenodd"
viewBox="0 0 1707 1707"
 xmlns:xlink="http://www.w3.org/1999/xlink">
 <defs>
  <style type="text/css">
   <![CDATA[
    .fil0 {fill:black;fill-rule:nonzero}
   ]]>
  </style>
 </defs>
 <g id="Layer_x0020_1">
  <metadata id="CorelCorpID_0Corel-Layer"/>
  <g id="_602450696">
   <path class="fil0" d="M424 905c10,-91 30,-178 59,-258 30,-83 70,-159 118,-228 109,-157 264,-277 451,-347 180,-68 389,-90 619,-57 11,2 19,10 20,21 3,17 5,33 7,50 35,318 -37,595 -189,804 -152,208 -385,347 -669,388 -13,2 -27,4 -40,5 -7,1 -14,-2 -19,-6l0 0 -351 -351c-5,-6 -8,-13 -6,-21zm103 -242c-27,74 -46,153 -56,238l335 335c9,-1 18,-3 28,-4 271,-39 492,-172 637,-370 146,-199 215,-464 180,-771 -1,-10 -2,-21 -3,-32 -216,-29 -412,-7 -580,56 -178,67 -325,181 -429,331 -46,66 -83,138 -112,217z"/>
   <path class="fil0" d="M1643 553c12,3 20,15 17,28 -3,12 -16,20 -28,17 -62,-16 -123,-40 -180,-72 -55,-32 -107,-71 -154,-118 -46,-47 -85,-98 -117,-154 -32,-57 -56,-117 -72,-179 -3,-12 4,-25 17,-28 12,-3 25,4 28,17 15,58 37,114 68,167 29,52 65,100 109,144 44,44 93,81 144,110 53,30 110,53 168,68z"/>
   <path class="fil0" d="M567 506c-9,-9 -9,-24 0,-33 9,-9 24,-9 33,0l320 321c9,9 9,24 0,33 -9,9 -23,9 -33,0l-320 -321z"/>
   <path class="fil0" d="M496 652c-9,-10 -9,-24 0,-33 9,-10 24,-10 33,0l189 188c9,9 9,24 0,33 -9,9 -24,9 -33,0l-189 -188z"/>
   <path class="fil0" d="M726 1189c9,-9 24,-9 33,0 9,9 9,24 0,33l-114 114c-9,9 -24,9 -33,0l-241 -241c-9,-9 -9,-24 0,-33l114 -114c9,-9 24,-9 33,0 9,9 9,24 0,33l-98 97 208 208 98 -97z"/>
   <path class="fil0" d="M52 1655c220,-41 327,-120 365,-197 28,-57 14,-113 -20,-148 -35,-35 -91,-48 -148,-20 -77,37 -156,145 -197,365zm407 -176c-45,91 -172,185 -431,227 -3,1 -6,1 -8,0 -13,-2 -22,-14 -20,-26 43,-260 136,-387 228,-432 78,-38 154,-19 202,29 47,48 66,124 29,202z"/>
   <path class="fil0" d="M1258 1084c-1,-13 9,-24 21,-25 13,-1 24,8 25,21l17 226c0,7 -2,14 -7,18l0 0 -241 242c-9,9 -24,9 -33,0 -4,-4 -6,-9 -7,-14l-57 -329c-2,-13 6,-25 19,-27 13,-2 25,6 27,19l50 286 201 -202 -15 -215z"/>
   <path class="fil0" d="M626 402c13,1 23,12 22,25 -1,13 -12,23 -25,22l-215 -16 -202 202 286 50c12,2 21,14 19,27 -3,12 -15,21 -27,19l-329 -57c-5,-1 -10,-3 -14,-7 -9,-9 -9,-24 0,-33l241 -241 0 0c5,-5 11,-8 18,-7l226 16z"/>
   <path class="fil0" d="M1219 488c30,31 45,70 45,110 0,40 -15,80 -45,110l0 0c-31,31 -71,46 -111,46 -39,0 -79,-15 -110,-46l0 0 0 0c-30,-30 -45,-70 -45,-110 0,-40 15,-79 45,-110l0 0c31,-30 71,-45 110,-45 40,0 80,15 111,45zm-2 110c0,-28 -10,-56 -31,-77 -22,-21 -50,-32 -78,-32 -27,0 -55,11 -77,32l0 0c-21,21 -32,49 -32,77 0,28 11,56 32,77l0 0 0 0c22,22 50,32 77,32 28,0 56,-10 78,-32l0 0c21,-21 31,-49 31,-77z"/>
  </g>
 </g>
</svg>
